<mxfile host="app.diagrams.net" modified="2022-01-18T09:50:14.878Z" agent="5.0 (Macintosh)" etag="SWFGv02-bdTK8uJJgYXZ" version="16.2.6" type="github">
  <diagram id="KJUW9N4FnG8-xS5-VwTA" name="Page-1">
    <mxGraphModel dx="1233" dy="809" grid="1" gridSize="10" guides="1" tooltips="1" connect="1" arrows="1" fold="1" page="1" pageScale="1" pageWidth="1600" pageHeight="900" math="0" shadow="0">
      <root>
        <mxCell id="0" />
        <mxCell id="1" parent="0" />
        <mxCell id="9S8gJg8NCwIkf3f2WFfz-13" style="rounded=0;orthogonalLoop=1;jettySize=auto;html=1;exitX=0;exitY=0.75;exitDx=0;exitDy=0;entryX=0.5;entryY=0;entryDx=0;entryDy=0;fontSize=14;edgeStyle=orthogonalEdgeStyle;curved=1;" parent="1" source="9S8gJg8NCwIkf3f2WFfz-1" target="9S8gJg8NCwIkf3f2WFfz-4" edge="1">
          <mxGeometry relative="1" as="geometry" />
        </mxCell>
        <mxCell id="9S8gJg8NCwIkf3f2WFfz-16" value="触发Checkpoint" style="edgeLabel;html=1;align=center;verticalAlign=middle;resizable=0;points=[];fontSize=14;" parent="9S8gJg8NCwIkf3f2WFfz-13" vertex="1" connectable="0">
          <mxGeometry x="0.5027" y="32" relative="1" as="geometry">
            <mxPoint as="offset" />
          </mxGeometry>
        </mxCell>
        <mxCell id="9S8gJg8NCwIkf3f2WFfz-1" value="&lt;font style=&quot;font-size: 14px&quot;&gt;JobManager&lt;/font&gt;" style="rounded=1;whiteSpace=wrap;html=1;fillColor=#fff2cc;strokeColor=#d6b656;" parent="1" vertex="1">
          <mxGeometry x="400" y="80" width="200" height="120" as="geometry" />
        </mxCell>
        <mxCell id="9S8gJg8NCwIkf3f2WFfz-2" value="CheckpointCoordinator" style="rounded=1;whiteSpace=wrap;html=1;fillColor=#ffe6cc;strokeColor=#d79b00;" parent="1" vertex="1">
          <mxGeometry x="420" y="130" width="160" height="60" as="geometry" />
        </mxCell>
        <mxCell id="9S8gJg8NCwIkf3f2WFfz-3" value="JobMaster" style="text;html=1;strokeColor=none;fillColor=none;align=center;verticalAlign=middle;whiteSpace=wrap;rounded=0;fontSize=14;" parent="1" vertex="1">
          <mxGeometry x="470" y="90" width="60" height="30" as="geometry" />
        </mxCell>
        <mxCell id="9S8gJg8NCwIkf3f2WFfz-17" style="edgeStyle=orthogonalEdgeStyle;curved=1;rounded=0;orthogonalLoop=1;jettySize=auto;html=1;exitX=1;exitY=0.5;exitDx=0;exitDy=0;entryX=0;entryY=0.5;entryDx=0;entryDy=0;fontSize=14;" parent="1" source="9S8gJg8NCwIkf3f2WFfz-4" target="9S8gJg8NCwIkf3f2WFfz-7" edge="1">
          <mxGeometry relative="1" as="geometry" />
        </mxCell>
        <mxCell id="9S8gJg8NCwIkf3f2WFfz-18" value="&lt;div&gt;Checkpoint&lt;br&gt;&lt;/div&gt;&lt;div&gt;Barrier&lt;/div&gt;" style="edgeLabel;html=1;align=center;verticalAlign=middle;resizable=0;points=[];fontSize=14;" parent="9S8gJg8NCwIkf3f2WFfz-17" vertex="1" connectable="0">
          <mxGeometry x="-0.2667" y="-2" relative="1" as="geometry">
            <mxPoint as="offset" />
          </mxGeometry>
        </mxCell>
        <mxCell id="9S8gJg8NCwIkf3f2WFfz-21" style="edgeStyle=orthogonalEdgeStyle;curved=1;rounded=0;orthogonalLoop=1;jettySize=auto;html=1;exitX=1;exitY=0;exitDx=0;exitDy=0;fontSize=14;dashed=1;entryX=0.25;entryY=1;entryDx=0;entryDy=0;" parent="1" source="9S8gJg8NCwIkf3f2WFfz-4" target="9S8gJg8NCwIkf3f2WFfz-1" edge="1">
          <mxGeometry relative="1" as="geometry" />
        </mxCell>
        <mxCell id="9S8gJg8NCwIkf3f2WFfz-24" value="汇报成功/失败" style="edgeLabel;html=1;align=center;verticalAlign=middle;resizable=0;points=[];fontSize=14;" parent="9S8gJg8NCwIkf3f2WFfz-21" vertex="1" connectable="0">
          <mxGeometry x="-0.2207" y="-4" relative="1" as="geometry">
            <mxPoint as="offset" />
          </mxGeometry>
        </mxCell>
        <mxCell id="9S8gJg8NCwIkf3f2WFfz-4" value="&lt;font style=&quot;font-size: 14px&quot;&gt;JobManager&lt;/font&gt;" style="rounded=1;whiteSpace=wrap;html=1;fillColor=#fff2cc;strokeColor=#d6b656;" parent="1" vertex="1">
          <mxGeometry x="80" y="320" width="200" height="120" as="geometry" />
        </mxCell>
        <mxCell id="9S8gJg8NCwIkf3f2WFfz-5" value="StreamSource" style="rounded=1;whiteSpace=wrap;html=1;fillColor=#ffe6cc;strokeColor=#d79b00;" parent="1" vertex="1">
          <mxGeometry x="100" y="370" width="160" height="60" as="geometry" />
        </mxCell>
        <mxCell id="9S8gJg8NCwIkf3f2WFfz-6" value="TaskExecutor" style="text;html=1;strokeColor=none;fillColor=none;align=center;verticalAlign=middle;whiteSpace=wrap;rounded=0;fontSize=14;" parent="1" vertex="1">
          <mxGeometry x="150" y="330" width="60" height="30" as="geometry" />
        </mxCell>
        <mxCell id="9S8gJg8NCwIkf3f2WFfz-19" style="edgeStyle=orthogonalEdgeStyle;curved=1;rounded=0;orthogonalLoop=1;jettySize=auto;html=1;exitX=1;exitY=0.5;exitDx=0;exitDy=0;entryX=0;entryY=0.5;entryDx=0;entryDy=0;fontSize=14;" parent="1" source="9S8gJg8NCwIkf3f2WFfz-7" target="9S8gJg8NCwIkf3f2WFfz-10" edge="1">
          <mxGeometry relative="1" as="geometry" />
        </mxCell>
        <mxCell id="9S8gJg8NCwIkf3f2WFfz-20" value="&lt;div&gt;Checkpoint&lt;/div&gt;&lt;div&gt;Barrier&lt;br&gt;&lt;/div&gt;" style="edgeLabel;html=1;align=center;verticalAlign=middle;resizable=0;points=[];fontSize=14;" parent="9S8gJg8NCwIkf3f2WFfz-19" vertex="1" connectable="0">
          <mxGeometry x="-0.2" y="-2" relative="1" as="geometry">
            <mxPoint as="offset" />
          </mxGeometry>
        </mxCell>
        <mxCell id="9S8gJg8NCwIkf3f2WFfz-22" style="edgeStyle=orthogonalEdgeStyle;curved=1;rounded=0;orthogonalLoop=1;jettySize=auto;html=1;exitX=0.5;exitY=0;exitDx=0;exitDy=0;dashed=1;fontSize=14;entryX=0.5;entryY=1;entryDx=0;entryDy=0;" parent="1" source="9S8gJg8NCwIkf3f2WFfz-7" target="9S8gJg8NCwIkf3f2WFfz-1" edge="1">
          <mxGeometry relative="1" as="geometry">
            <mxPoint x="500" y="210" as="targetPoint" />
          </mxGeometry>
        </mxCell>
        <mxCell id="9S8gJg8NCwIkf3f2WFfz-25" value="汇报成功/失败" style="edgeLabel;html=1;align=center;verticalAlign=middle;resizable=0;points=[];fontSize=14;" parent="9S8gJg8NCwIkf3f2WFfz-22" vertex="1" connectable="0">
          <mxGeometry x="-0.3167" y="2" relative="1" as="geometry">
            <mxPoint as="offset" />
          </mxGeometry>
        </mxCell>
        <mxCell id="9S8gJg8NCwIkf3f2WFfz-7" value="&lt;font style=&quot;font-size: 14px&quot;&gt;JobManager&lt;/font&gt;" style="rounded=1;whiteSpace=wrap;html=1;fillColor=#fff2cc;strokeColor=#d6b656;" parent="1" vertex="1">
          <mxGeometry x="400" y="320" width="200" height="120" as="geometry" />
        </mxCell>
        <mxCell id="9S8gJg8NCwIkf3f2WFfz-8" value="StreamOperator" style="rounded=1;whiteSpace=wrap;html=1;fillColor=#ffe6cc;strokeColor=#d79b00;" parent="1" vertex="1">
          <mxGeometry x="420" y="370" width="160" height="60" as="geometry" />
        </mxCell>
        <mxCell id="9S8gJg8NCwIkf3f2WFfz-9" value="TaskExecutor" style="text;html=1;strokeColor=none;fillColor=none;align=center;verticalAlign=middle;whiteSpace=wrap;rounded=0;fontSize=14;" parent="1" vertex="1">
          <mxGeometry x="470" y="330" width="60" height="30" as="geometry" />
        </mxCell>
        <mxCell id="9S8gJg8NCwIkf3f2WFfz-23" style="edgeStyle=orthogonalEdgeStyle;curved=1;rounded=0;orthogonalLoop=1;jettySize=auto;html=1;exitX=0.5;exitY=0;exitDx=0;exitDy=0;entryX=0.75;entryY=1;entryDx=0;entryDy=0;dashed=1;fontSize=14;" parent="1" source="9S8gJg8NCwIkf3f2WFfz-10" target="9S8gJg8NCwIkf3f2WFfz-1" edge="1">
          <mxGeometry relative="1" as="geometry" />
        </mxCell>
        <mxCell id="9S8gJg8NCwIkf3f2WFfz-26" value="汇报成功/失败" style="edgeLabel;html=1;align=center;verticalAlign=middle;resizable=0;points=[];fontSize=14;" parent="9S8gJg8NCwIkf3f2WFfz-23" vertex="1" connectable="0">
          <mxGeometry x="0.1641" y="2" relative="1" as="geometry">
            <mxPoint as="offset" />
          </mxGeometry>
        </mxCell>
        <mxCell id="9S8gJg8NCwIkf3f2WFfz-10" value="&lt;font style=&quot;font-size: 14px&quot;&gt;JobManager&lt;/font&gt;" style="rounded=1;whiteSpace=wrap;html=1;fillColor=#fff2cc;strokeColor=#d6b656;" parent="1" vertex="1">
          <mxGeometry x="720" y="320" width="200" height="120" as="geometry" />
        </mxCell>
        <mxCell id="9S8gJg8NCwIkf3f2WFfz-11" value="StreamSink" style="rounded=1;whiteSpace=wrap;html=1;fillColor=#ffe6cc;strokeColor=#d79b00;" parent="1" vertex="1">
          <mxGeometry x="740" y="370" width="160" height="60" as="geometry" />
        </mxCell>
        <mxCell id="9S8gJg8NCwIkf3f2WFfz-12" value="TaskExecutor" style="text;html=1;strokeColor=none;fillColor=none;align=center;verticalAlign=middle;whiteSpace=wrap;rounded=0;fontSize=14;" parent="1" vertex="1">
          <mxGeometry x="790" y="330" width="60" height="30" as="geometry" />
        </mxCell>
        <mxCell id="9S8gJg8NCwIkf3f2WFfz-27" value="触发下游的Checkpoint" style="text;html=1;strokeColor=none;fillColor=none;align=center;verticalAlign=middle;whiteSpace=wrap;rounded=0;fontSize=14;" parent="1" vertex="1">
          <mxGeometry x="250" y="440" width="180" height="30" as="geometry" />
        </mxCell>
        <mxCell id="9S8gJg8NCwIkf3f2WFfz-28" value="触发下游的Checkpoint" style="text;html=1;strokeColor=none;fillColor=none;align=center;verticalAlign=middle;whiteSpace=wrap;rounded=0;fontSize=14;" parent="1" vertex="1">
          <mxGeometry x="580" y="440" width="180" height="30" as="geometry" />
        </mxCell>
        <mxCell id="9S8gJg8NCwIkf3f2WFfz-29" value="Checkpoint触发流程" style="text;html=1;strokeColor=none;fillColor=none;align=center;verticalAlign=middle;whiteSpace=wrap;rounded=0;fontSize=18;" parent="1" vertex="1">
          <mxGeometry x="95" y="95" width="170" height="20" as="geometry" />
        </mxCell>
      </root>
    </mxGraphModel>
  </diagram>
</mxfile>
